<svg id="Gray" xmlns="http://www.w3.org/2000/svg" viewBox="0 0 480.48 192.3"><defs><style>.cls-1{fill:#89529E;}</style></defs><title>logo-gray-svg</title><path class="cls-1" d="M252.61,205.88c0,4.59.15,8.87,0,13.14-.45,10.43-1.31,20.81-4.31,30.88-1.48,5-3.45,9.69-7,13.63a16.39,16.39,0,0,1-24.61-.08,31.57,31.57,0,0,1-4.32-6.81,76.92,76.92,0,0,1-2.86-7.85c-.58,1.28-1.08,2.46-1.64,3.61-2.75,5.63-6.21,10.61-12.29,13.11-6.26,2.57-11.55,1.15-15.54-4.3s-5.5-11.63-6.21-18.13c-1-8.88.51-17.63,1.62-26.4q1.57-12.46,3-24.94c.45-3.91,3.59-6.25,7.37-5.4,2.69.61,4.4,2.44,4.19,5.19-.43,5.45-1,10.9-1.75,16.32-1.19,8.55-3.31,17-2.81,25.71a162.72,162.72,0,0,0,2.28,17.6c.23,1.35,1.51,3.29,2.6,3.5s2.72-1.26,3.65-2.38c4.7-5.63,7-12.43,8.26-19.46,2.51-14,4.61-28.1,6.86-42.15.32-2,.49-4.06.81-6.08.46-2.82,2.72-4.29,6.06-4.05,3.16.23,5.52,2.24,5.34,5-.26,3.94-.87,7.86-1.26,11.8-1.45,14.61-1.87,29.24-.18,43.85a52.94,52.94,0,0,0,2.82,11.06c.95,2.74,2.81,5.09,6.11,5.18s5.25-2.17,6.67-4.83c2.53-4.74,3.48-9.94,4.1-15.19,1.78-15.31,1.79-30.68,1.41-46.06q-.06-2.47,0-5c.09-3.6,2.19-5.74,5.63-5.78s5.9,2.27,6.06,5.89a36.22,36.22,0,0,0,.39,4.33c.54,3.28,2.18,4.14,5,2.45,5.27-3.19,9.08-7.58,10.62-13.7,1-3.92,4.16-5.62,8-4.27a5,5,0,0,1,3.55,5.66c-1.32,11-2.81,22-3.91,33-.82,8.13-1.33,16.32-.23,24.48a20.14,20.14,0,0,0,1.68,5.64c1.23,2.66,3.49,3.4,6.29,2.42,6-2.09,11.09-9,11.45-15.38.14-2.37.48-4.72.77-7.08.91-7.26,1.68-14.53,2.81-21.76.9-5.78,3.51-10.85,8.32-14.37,2.07-1.51,4.67-2.3,7-3.39.65-.3,1.33-.53,2-.81a43,43,0,0,1,6.16-2.63c7.56-1.93,13.79,2.49,15.33,10.58a21.2,21.2,0,0,1-.57,10.57,98.49,98.49,0,0,1-4.5,11.15c-1.24,2.66-3.52,3.5-6.26,2.84a6.22,6.22,0,0,1-4.61-5.33c-.43-3.32-.91-6.65-1.6-9.93a20.58,20.58,0,0,0-1.95-4.13,35.44,35.44,0,0,0-6.33,10.82c-2.56,6.26-3.11,12.9-3.94,19.51-.49,3.91-1.46,7.78-1.68,11.7a30,30,0,0,0,1,8.41c2.12,9,9.88,14.11,19,12.78S343,254,350,248.28c11-9,15.89-20.83,16.07-34.88.12-9.84-1.6-19.44-3.36-29-.69-3.76.9-6.53,4.2-7.37s5.77.63,7.07,4.31a62.17,62.17,0,0,0,8.4,15.4c5.06,7.07,10.13,14.13,15.38,21.46,2.88-1.21,6.25-2.51,9.49-4.08.61-.29.91-1.63,1-2.52a66.83,66.83,0,0,1,11.8-31.11,42.79,42.79,0,0,1,10.74-11,25,25,0,0,1,4.64-2.62c5.16-2.14,9.39-.8,12.17,4.06,5.74,10.07,5.87,20.08-.9,29.78-5.39,7.71-12.95,12.88-20.95,17.5-1.76,1-3.57,2-5.31,2.92,1,12,8.78,21.51,19.89,23.43,18,3.13,36.35-10,37.86-28.4.06-.79.11-1.58.22-2.36a5.74,5.74,0,0,1,6.47-5c3.27.31,5.35,2.5,5.09,5.87-1.43,18.07-10.06,31.65-26.84,38.58-16.22,6.69-31.51,3.51-44.65-8.28a30.93,30.93,0,0,1-9.3-16.26c-.15-.64-.31-1.28-.52-2.14-2.33,1-4.6,2-6.81,3.1a1.73,1.73,0,0,0-.63,1.4c1.06,16.24-7.59,27.36-19.61,36.44-5.86,4.43-12,4.4-17,.91-3.56-2.49-5.32-6.11-6.15-10.26-.08-.39-.13-.78-.2-1.17,0,0-.09-.08-.26-.22-.42.31-.88.63-1.32,1-9,7.08-19,11.84-30.4,13.36-14.37,1.9-24.56-4.54-28.94-18.35-.1-.31-.25-.61-.46-1.15a24.74,24.74,0,0,1-1.87,1.69,53.17,53.17,0,0,1-6.28,4.43c-6.59,3.49-13.08,2.22-18.08-3.3-3.69-4.07-5.32-9.05-6.12-14.35-1.38-9.15-.56-18.3.21-27.44.28-3.27.68-6.53,1.06-10.13C261.69,204.82,257.64,206.47,252.61,205.88ZM421,207.57c2.46-1.5,4.89-2.83,7.15-4.39a45.2,45.2,0,0,0,6.19-4.9c7.43-7.36,6.16-11.62,4-20.16C432.3,180.41,421.34,198.88,421,207.57Zm-30.71,28.21-.83-.54c-4,2.42-8.09,4.67-11.93,7.31a26,26,0,0,0-5.81,5.57,11.14,11.14,0,0,0-1.89,5.27c-.22,1.87.13,4,2.07,5s3.38-.42,4.83-1.43a7.86,7.86,0,0,0,1.78-1.56c3-4,6.26-7.82,9-12C388.93,241.17,389.42,238.34,390.33,235.77Zm-3.46-12.89-9.24-13.38-2.13,19.71Z" transform="translate(-9.52 -148.44)"/><path class="cls-1" d="M95.84,250c2.16.31,4.28.55,6.38.91,14.19,2.46,31.7-8,36-24.28.9-3.38,3.07-5.06,5.88-4.53,3.77.71,5.7,3,5,6.7a36,36,0,0,1-8.45,17,45.62,45.62,0,0,1-30.59,16.41,8,8,0,0,0-1,.28c.43.77.78,1.45,1.18,2.09,5,7.95,9.72,16.06,12.06,25.24,3.57,14,2.29,27.59-4.88,40.34a20.39,20.39,0,0,1-10.66,9.34c-6.56,2.5-12.43,1.42-17.5-3.5-5.41-5.25-8.39-11.93-10.82-18.88a104.8,104.8,0,0,1-5.62-29.19q-.48-9-.78-18c0-1.33-.38-1.93-1.82-1.81-9.06.78-14.87-3.79-18.68-11.51a53.15,53.15,0,0,1-4.44-15.51,5.13,5.13,0,0,0-.86-2.33c-.58,2.21-1,4.48-1.78,6.63a112.32,112.32,0,0,1-5.24,13.17A20,20,0,0,1,33.6,265c-4.25,3.23-9.12,2.6-12.87-1.2s-5.56-8.31-7.17-13.07a82.89,82.89,0,0,1-3.81-32.37c.47-7.17.74-14.36,1.44-21.51a31.77,31.77,0,0,1,2.29-8.91c1.34-3.25,4.55-4.19,7.61-2.79s3.73,3.76,2.83,7.24a58.3,58.3,0,0,0-1.83,10.47c-.59,8.68-1.14,17.38-1.18,26.07a49.43,49.43,0,0,0,5.82,23.37c.35.67.81,1.29,1.22,1.93l.65.08c1.44-3.28,3.29-6.44,4.24-9.86,2.48-8.93,4.68-17.94,6.77-27C42,207.27,44,197,46.36,186.83c.74-3.24,3.4-4.68,6.65-4.11a5.14,5.14,0,0,1,4.32,5.35c0,3.1-.22,6.19-.34,9.29-.47,12.4-.86,24.8.31,37.17.53,5.57,1.23,11.15,3.5,16.35a17.54,17.54,0,0,0,2.32,3.88,6.38,6.38,0,0,0,8.4,1.44,2.61,2.61,0,0,0,.83-1.81c.49-5.71.67-11.46,1.39-17.14,2.51-19.8,5.2-39.59,13.47-58.06,3.42-7.63,8.2-14.29,15.12-19.23,2.14-1.52,4.35-2.69,6.95-1.36s3.43,3.79,3.42,6.63c0,7.45.4,14.92-.1,22.34-1.45,21.47-5.5,42.31-16.29,61.33A11.13,11.13,0,0,0,95.84,250Zm-4.21,6.15c-2.23,2.07-4.52,4.33-7,6.41a3.2,3.2,0,0,0-1.31,2.84c.29,7.77.45,15.54.82,23.3a90.69,90.69,0,0,0,5.53,27.55c1.48,4,3.3,7.79,6.58,10.65,4.24,3.68,8.46,3.07,11.52-1.59a8.67,8.67,0,0,0,.62-1,47.63,47.63,0,0,0,4.2-25.4c-.77-7.9-4.15-15.09-8.12-21.88C100.36,269.89,95.9,263,91.63,256.1Zm10.32-78.71-.74-.31c-.6.9-1.25,1.76-1.8,2.69-4.21,7.19-6.59,15.07-8.45,23.1a305.15,305.15,0,0,0-6.32,38c-.18,1.75-.22,3.51-.33,5.26l.93.14C98,225,100.22,201.28,101.95,177.39Z" transform="translate(-9.52 -148.44)"/><path class="cls-1" d="M286.1,155.2c-.35,4.07-2.62,6.71-6.07,6.76s-5.94-2.59-6-6.66c0-3.5,1.43-5.77,4.2-6.62a5.52,5.52,0,0,1,6.4,2.31A20.94,20.94,0,0,1,286.1,155.2Z" transform="translate(-9.52 -148.44)"/></svg>